<svg width="44" height="44" viewBox="0 0 44 44" fill="none" xmlns="http://www.w3.org/2000/svg">
<g clip-path="url(#clip0_4207_5)">
<path d="M0 8C0 3.58172 3.58172 0 8 0H36C40.4183 0 44 3.58172 44 8V36C44 40.4183 40.4183 44 36 44H8C3.58172 44 0 40.4183 0 36V8Z" fill="black"/>
<path d="M23.8623 32.5107C23.8858 32.6206 23.9751 32.7108 24.085 32.7344L24.1416 32.7402H32.1504L32.2061 32.7344C32.3162 32.7111 32.4061 32.6208 32.4297 32.5107L32.4355 32.4541V30.7383C32.4355 30.6034 32.3346 30.4852 32.2061 30.458L32.1504 30.4521V29.4521C32.8124 29.4524 33.3636 29.9618 33.4297 30.6074L33.4355 30.7383V32.4541L33.4297 32.585C33.3634 33.2304 32.8123 33.74 32.1504 33.7402H24.1416C23.4355 33.7401 22.8555 33.1602 22.8555 32.4541V30.7383C22.8555 30.0321 23.4355 29.4523 24.1416 29.4521V30.4521L24.085 30.458C23.9567 30.4855 23.8555 30.6037 23.8555 30.7383V32.4541L23.8623 32.5107ZM32.1504 29.4521V30.4521H24.1416V29.4521H32.1504Z" fill="url(#paint0_linear_4207_5)"/>
<path d="M11.1934 15.7031C11.286 14.9668 12.0025 14.5769 12.6309 14.7061L12.7637 14.7412L12.8105 14.7568L12.8564 14.7773L22.6689 19.1777L22.668 19.1787C23.1297 19.3831 23.4776 19.8318 23.5195 20.375L23.5234 20.4863V22.3564L23.5195 22.4668C23.4777 23.0099 23.1295 23.4576 22.668 23.6621L22.6689 23.6641L12.8564 28.0645L12.8105 28.085L12.7637 28.1006C12.0642 28.3338 11.1836 27.8723 11.1836 26.9756V24.9961C11.1836 24.3976 11.5531 23.8952 12.0537 23.6807L12.0576 23.6787L17.417 21.4131L12.0605 19.1641L12.0537 19.1611C11.5531 18.9466 11.1836 18.4442 11.1836 17.8457V15.8662L11.1934 15.7031ZM12.1836 17.8457C12.1836 18.0217 12.2933 18.1762 12.4473 18.2422L19.9932 21.4102L12.4473 24.5996C12.2933 24.6656 12.1836 24.8201 12.1836 24.9961V26.9756C12.1836 27.0912 12.2846 27.1731 12.3984 27.1621L12.4473 27.1523L22.2598 22.752C22.3943 22.6941 22.4954 22.569 22.5186 22.4209L22.5234 22.3564V20.4863C22.5234 20.3323 22.4388 20.1952 22.3145 20.1191L22.2598 20.0898L12.4473 15.6904C12.3153 15.6464 12.1836 15.7342 12.1836 15.8662V17.8457Z" fill="url(#paint1_linear_4207_5)"/>
</g>
<defs>
<linearGradient id="paint0_linear_4207_5" x1="28.1455" y1="29.4521" x2="28.1455" y2="33.7402" gradientUnits="userSpaceOnUse">
<stop stop-color="#15BFF0"/>
<stop offset="1" stop-color="#FFF53C"/>
</linearGradient>
<linearGradient id="paint1_linear_4207_5" x1="17.3535" y1="14.6816" x2="17.3535" y2="28.1606" gradientUnits="userSpaceOnUse">
<stop stop-color="#15BFF0"/>
<stop offset="1" stop-color="#FFF53C"/>
</linearGradient>
<clipPath id="clip0_4207_5">
<rect width="44" height="44" fill="white"/>
</clipPath>
</defs>
</svg>
